# xmcd CD database file
#
# Track frame offsets:
#	150
#	14107
#	24887
#	44432
#	58515
#	72992
#	86570
#	108745
#	118162
#	130457
#	143322
#	162452
#	174750
#	187685
#	203480
#	218692
#	230482
#	245020
#	252910
#	267875
#
# Disc length: 3841 seconds
#
# Revision: 3
# Processed by: cddbd v1.4PL0 Copyright (c) Steve Scherf et al.
# Submitted via: CDex 1.40Beta8
#
DISCID=160eff14
DTITLE=Michel Polnareff - Le meilleur de Michel Polnareff
DYEAR=1900
DGENRE=
TTITLE0=tout,tout_pour_ma_cherie
TTITLE1=la_michetonneuse
TTITLE2=love_me,please_love_me
TTITLE3=l'amour_avec_toi
TTITLE4=la_poupee_qui_fait_non
TTITLE5=ame_caline
TTITLE6=le_bal_des_laze
TTITLE7=les_grands_setiments_humains
TTITLE8=j'ai_du_chagrin_marie:my_friend
TTITLE9=allo_georgina
TTITLE10=comme_juliette_et_romeo
TTITLE11=dans_la_maison_vide
TTITLE12=l'oiseau_de_nuit
TTITLE13=mes_regrets
TTITLE14=ne_dans_un_ice-cream
TTITLE15=qui_a_tue_grand'_maman
TTITLE16=nos_mots_d'amour
TTITLE17=ca_m'arrive_qu'aux_autres
TTITLE18=holidays
TTITLE19=la_mouche
EXTD=
EXTT0=
EXTT1=
EXTT2=
EXTT3=
EXTT4=
EXTT5=
EXTT6=
EXTT7=
EXTT8=
EXTT9=
EXTT10=
EXTT11=
EXTT12=
EXTT13=
EXTT14=
EXTT15=
EXTT16=
EXTT17=
EXTT18=
EXTT19=
PLAYORDER=
